<mxfile host="app.diagrams.net" agent="Mozilla/5.0 (Windows NT 10.0; Win64; x64) AppleWebKit/537.36 (KHTML, like Gecko) Chrome/138.0.0.0 Safari/537.36 Edg/138.0.0.0" version="28.0.7">
  <diagram name="第 1 页" id="LV8jwO1P4TPCHg7ToHsJ">
    <mxGraphModel dx="2885" dy="2323" grid="1" gridSize="10" guides="1" tooltips="1" connect="1" arrows="1" fold="1" page="1" pageScale="1" pageWidth="827" pageHeight="1169" math="0" shadow="0">
      <root>
        <mxCell id="0" />
        <mxCell id="1" parent="0" />
        <mxCell id="eq3_Tgp2EmCCtKbiBsS1-87" value="" style="rounded=0;whiteSpace=wrap;html=1;fillColor=default;strokeWidth=3;" vertex="1" parent="1">
          <mxGeometry x="240" y="-460" width="820" height="350" as="geometry" />
        </mxCell>
        <mxCell id="eq3_Tgp2EmCCtKbiBsS1-93" value="" style="rounded=0;whiteSpace=wrap;html=1;strokeWidth=3;" vertex="1" parent="1">
          <mxGeometry x="480" width="520" height="440" as="geometry" />
        </mxCell>
        <mxCell id="eq3_Tgp2EmCCtKbiBsS1-91" value="" style="rounded=0;whiteSpace=wrap;html=1;fillStyle=auto;strokeWidth=3;fillColor=default;" vertex="1" parent="1">
          <mxGeometry x="-700" y="-280" width="800" height="180" as="geometry" />
        </mxCell>
        <mxCell id="eq3_Tgp2EmCCtKbiBsS1-84" value="" style="rounded=0;whiteSpace=wrap;html=1;fillStyle=auto;strokeWidth=3;fillColor=default;" vertex="1" parent="1">
          <mxGeometry x="-250" y="-50" width="620" height="470" as="geometry" />
        </mxCell>
        <mxCell id="eq3_Tgp2EmCCtKbiBsS1-12" style="edgeStyle=orthogonalEdgeStyle;rounded=0;orthogonalLoop=1;jettySize=auto;html=1;endArrow=block;endFill=0;" edge="1" parent="1" source="eq3_Tgp2EmCCtKbiBsS1-5" target="eq3_Tgp2EmCCtKbiBsS1-10">
          <mxGeometry relative="1" as="geometry" />
        </mxCell>
        <mxCell id="eq3_Tgp2EmCCtKbiBsS1-5" value="VarInt" style="swimlane;fontStyle=0;childLayout=stackLayout;horizontal=1;startSize=26;fillColor=none;horizontalStack=0;resizeParent=1;resizeParentMax=0;resizeLast=0;collapsible=1;marginBottom=0;whiteSpace=wrap;html=1;" vertex="1" parent="1">
          <mxGeometry x="730" y="160" width="140" height="56" as="geometry" />
        </mxCell>
        <mxCell id="eq3_Tgp2EmCCtKbiBsS1-24" value="int m_data" style="text;html=1;align=center;verticalAlign=middle;resizable=0;points=[];autosize=1;strokeColor=none;fillColor=none;" vertex="1" parent="eq3_Tgp2EmCCtKbiBsS1-5">
          <mxGeometry y="26" width="140" height="30" as="geometry" />
        </mxCell>
        <mxCell id="eq3_Tgp2EmCCtKbiBsS1-10" value="&lt;p style=&quot;margin:0px;margin-top:4px;text-align:center;&quot;&gt;&lt;i&gt;&amp;lt;&amp;lt;Interface&amp;gt;&amp;gt;&lt;/i&gt;&lt;br&gt;&lt;b&gt;VarBase&lt;/b&gt;&lt;/p&gt;&lt;hr size=&quot;1&quot; style=&quot;border-style:solid;&quot;&gt;&lt;p style=&quot;margin:0px;margin-left:4px;&quot;&gt;&lt;br&gt;&lt;/p&gt;&lt;p style=&quot;margin:0px;margin-left:4px;&quot;&gt;std::string m_name;&lt;/p&gt;&lt;p style=&quot;margin:0px;margin-left:4px;&quot;&gt;VarType m_type;&lt;/p&gt;" style="verticalAlign=top;align=left;overflow=fill;html=1;whiteSpace=wrap;" vertex="1" parent="1">
          <mxGeometry x="530" y="28" width="190" height="100" as="geometry" />
        </mxCell>
        <mxCell id="eq3_Tgp2EmCCtKbiBsS1-17" style="edgeStyle=orthogonalEdgeStyle;rounded=0;orthogonalLoop=1;jettySize=auto;html=1;entryX=0.5;entryY=1;entryDx=0;entryDy=0;endArrow=block;endFill=0;" edge="1" parent="1" source="eq3_Tgp2EmCCtKbiBsS1-13" target="eq3_Tgp2EmCCtKbiBsS1-10">
          <mxGeometry relative="1" as="geometry" />
        </mxCell>
        <mxCell id="eq3_Tgp2EmCCtKbiBsS1-13" value="VarPtr" style="swimlane;fontStyle=0;childLayout=stackLayout;horizontal=1;startSize=26;fillColor=none;horizontalStack=0;resizeParent=1;resizeParentMax=0;resizeLast=0;collapsible=1;marginBottom=0;whiteSpace=wrap;html=1;" vertex="1" parent="1">
          <mxGeometry x="730" y="250" width="140" height="56" as="geometry" />
        </mxCell>
        <mxCell id="eq3_Tgp2EmCCtKbiBsS1-26" value="int* data" style="text;html=1;align=center;verticalAlign=middle;resizable=0;points=[];autosize=1;strokeColor=none;fillColor=none;" vertex="1" parent="eq3_Tgp2EmCCtKbiBsS1-13">
          <mxGeometry y="26" width="140" height="30" as="geometry" />
        </mxCell>
        <mxCell id="eq3_Tgp2EmCCtKbiBsS1-18" style="edgeStyle=orthogonalEdgeStyle;rounded=0;orthogonalLoop=1;jettySize=auto;html=1;entryX=0.5;entryY=1;entryDx=0;entryDy=0;endArrow=block;endFill=0;" edge="1" parent="1" source="eq3_Tgp2EmCCtKbiBsS1-15" target="eq3_Tgp2EmCCtKbiBsS1-10">
          <mxGeometry relative="1" as="geometry" />
        </mxCell>
        <mxCell id="eq3_Tgp2EmCCtKbiBsS1-15" value="VarRef" style="swimlane;fontStyle=0;childLayout=stackLayout;horizontal=1;startSize=26;fillColor=none;horizontalStack=0;resizeParent=1;resizeParentMax=0;resizeLast=0;collapsible=1;marginBottom=0;whiteSpace=wrap;html=1;" vertex="1" parent="1">
          <mxGeometry x="730" y="330" width="140" height="56" as="geometry" />
        </mxCell>
        <mxCell id="eq3_Tgp2EmCCtKbiBsS1-27" value="int* data" style="text;html=1;align=center;verticalAlign=middle;resizable=0;points=[];autosize=1;strokeColor=none;fillColor=none;" vertex="1" parent="eq3_Tgp2EmCCtKbiBsS1-15">
          <mxGeometry y="26" width="140" height="30" as="geometry" />
        </mxCell>
        <mxCell id="eq3_Tgp2EmCCtKbiBsS1-75" style="edgeStyle=orthogonalEdgeStyle;rounded=0;orthogonalLoop=1;jettySize=auto;html=1;entryX=0;entryY=0.5;entryDx=0;entryDy=0;startArrow=diamond;startFill=0;" edge="1" parent="1" source="eq3_Tgp2EmCCtKbiBsS1-19" target="eq3_Tgp2EmCCtKbiBsS1-61">
          <mxGeometry relative="1" as="geometry">
            <Array as="points">
              <mxPoint x="230" y="-162" />
            </Array>
          </mxGeometry>
        </mxCell>
        <mxCell id="eq3_Tgp2EmCCtKbiBsS1-19" value="Block" style="swimlane;fontStyle=0;childLayout=stackLayout;horizontal=1;startSize=26;fillColor=none;horizontalStack=0;resizeParent=1;resizeParentMax=0;resizeLast=0;collapsible=1;marginBottom=0;whiteSpace=wrap;html=1;" vertex="1" parent="1">
          <mxGeometry x="90" y="-10" width="230" height="150" as="geometry" />
        </mxCell>
        <mxCell id="eq3_Tgp2EmCCtKbiBsS1-20" value="&lt;div&gt;BlockType m_type;&lt;/div&gt;&lt;div&gt;VarMap m_varMap;&lt;/div&gt;&lt;div&gt;ClassMap m_classMap;&lt;/div&gt;&lt;div&gt;std::string m_blockBody;&lt;/div&gt;&lt;div&gt;Calculator m_calc;&lt;/div&gt;&lt;div&gt;Block* m_parentBlock;&lt;/div&gt;" style="text;strokeColor=none;fillColor=none;align=left;verticalAlign=top;spacingLeft=4;spacingRight=4;overflow=hidden;rotatable=0;points=[[0,0.5],[1,0.5]];portConstraint=eastwest;whiteSpace=wrap;html=1;" vertex="1" parent="eq3_Tgp2EmCCtKbiBsS1-19">
          <mxGeometry y="26" width="230" height="124" as="geometry" />
        </mxCell>
        <mxCell id="eq3_Tgp2EmCCtKbiBsS1-39" style="edgeStyle=orthogonalEdgeStyle;rounded=0;orthogonalLoop=1;jettySize=auto;html=1;endArrow=blockThin;endFill=0;" edge="1" parent="1" source="eq3_Tgp2EmCCtKbiBsS1-28" target="eq3_Tgp2EmCCtKbiBsS1-20">
          <mxGeometry relative="1" as="geometry" />
        </mxCell>
        <mxCell id="eq3_Tgp2EmCCtKbiBsS1-28" value="LoopBlock" style="swimlane;fontStyle=0;childLayout=stackLayout;horizontal=1;startSize=26;fillColor=none;horizontalStack=0;resizeParent=1;resizeParentMax=0;resizeLast=0;collapsible=1;marginBottom=0;whiteSpace=wrap;html=1;" vertex="1" parent="1">
          <mxGeometry x="-210" y="176" width="230" height="60" as="geometry" />
        </mxCell>
        <mxCell id="eq3_Tgp2EmCCtKbiBsS1-29" value="BasicClass* m_owner;" style="text;strokeColor=none;fillColor=none;align=left;verticalAlign=top;spacingLeft=4;spacingRight=4;overflow=hidden;rotatable=0;points=[[0,0.5],[1,0.5]];portConstraint=eastwest;whiteSpace=wrap;html=1;" vertex="1" parent="eq3_Tgp2EmCCtKbiBsS1-28">
          <mxGeometry y="26" width="230" height="34" as="geometry" />
        </mxCell>
        <mxCell id="eq3_Tgp2EmCCtKbiBsS1-40" style="edgeStyle=orthogonalEdgeStyle;rounded=0;orthogonalLoop=1;jettySize=auto;html=1;entryX=0;entryY=0.5;entryDx=0;entryDy=0;endArrow=block;endFill=0;" edge="1" parent="1" source="eq3_Tgp2EmCCtKbiBsS1-30" target="eq3_Tgp2EmCCtKbiBsS1-20">
          <mxGeometry relative="1" as="geometry" />
        </mxCell>
        <mxCell id="eq3_Tgp2EmCCtKbiBsS1-30" value="IfBlock" style="swimlane;fontStyle=0;childLayout=stackLayout;horizontal=1;startSize=26;fillColor=none;horizontalStack=0;resizeParent=1;resizeParentMax=0;resizeLast=0;collapsible=1;marginBottom=0;whiteSpace=wrap;html=1;" vertex="1" parent="1">
          <mxGeometry x="-230" y="-10" width="230" height="60" as="geometry" />
        </mxCell>
        <mxCell id="eq3_Tgp2EmCCtKbiBsS1-31" value="BasicClass* m_owner;" style="text;strokeColor=none;fillColor=none;align=left;verticalAlign=top;spacingLeft=4;spacingRight=4;overflow=hidden;rotatable=0;points=[[0,0.5],[1,0.5]];portConstraint=eastwest;whiteSpace=wrap;html=1;" vertex="1" parent="eq3_Tgp2EmCCtKbiBsS1-30">
          <mxGeometry y="26" width="230" height="34" as="geometry" />
        </mxCell>
        <mxCell id="eq3_Tgp2EmCCtKbiBsS1-32" style="edgeStyle=orthogonalEdgeStyle;rounded=0;orthogonalLoop=1;jettySize=auto;html=1;entryX=0;entryY=0.5;entryDx=0;entryDy=0;startArrow=diamond;startFill=0;" edge="1" parent="1" source="eq3_Tgp2EmCCtKbiBsS1-20" target="eq3_Tgp2EmCCtKbiBsS1-10">
          <mxGeometry relative="1" as="geometry" />
        </mxCell>
        <mxCell id="eq3_Tgp2EmCCtKbiBsS1-41" value="Calculator" style="swimlane;fontStyle=0;childLayout=stackLayout;horizontal=1;startSize=26;fillColor=none;horizontalStack=0;resizeParent=1;resizeParentMax=0;resizeLast=0;collapsible=1;marginBottom=0;whiteSpace=wrap;html=1;" vertex="1" parent="1">
          <mxGeometry x="30" y="310" width="140" height="52" as="geometry" />
        </mxCell>
        <mxCell id="eq3_Tgp2EmCCtKbiBsS1-42" value="&amp;nbsp;Block*&amp;nbsp; m_block;" style="text;strokeColor=none;fillColor=none;align=left;verticalAlign=top;spacingLeft=4;spacingRight=4;overflow=hidden;rotatable=0;points=[[0,0.5],[1,0.5]];portConstraint=eastwest;whiteSpace=wrap;html=1;" vertex="1" parent="eq3_Tgp2EmCCtKbiBsS1-41">
          <mxGeometry y="26" width="140" height="26" as="geometry" />
        </mxCell>
        <mxCell id="eq3_Tgp2EmCCtKbiBsS1-51" style="edgeStyle=orthogonalEdgeStyle;rounded=0;orthogonalLoop=1;jettySize=auto;html=1;entryX=0.5;entryY=0;entryDx=0;entryDy=0;endArrow=block;endFill=0;" edge="1" parent="1" source="eq3_Tgp2EmCCtKbiBsS1-46" target="eq3_Tgp2EmCCtKbiBsS1-19">
          <mxGeometry relative="1" as="geometry" />
        </mxCell>
        <mxCell id="eq3_Tgp2EmCCtKbiBsS1-46" value="BasicFunc" style="swimlane;fontStyle=0;childLayout=stackLayout;horizontal=1;startSize=26;fillColor=none;horizontalStack=0;resizeParent=1;resizeParentMax=0;resizeLast=0;collapsible=1;marginBottom=0;whiteSpace=wrap;html=1;" vertex="1" parent="1">
          <mxGeometry x="-210" y="-250" width="240" height="90" as="geometry" />
        </mxCell>
        <mxCell id="eq3_Tgp2EmCCtKbiBsS1-47" value="&lt;div&gt;&lt;span style=&quot;white-space: normal;&quot;&gt;std::string m_name;&lt;/span&gt;&lt;/div&gt;&lt;div&gt;&lt;span style=&quot;white-space: normal;&quot;&gt;std::string m_formalArgs;&amp;nbsp; &amp;nbsp; &amp;nbsp; &amp;nbsp;&lt;/span&gt;&lt;/div&gt;&lt;div&gt;&lt;span style=&quot;white-space: normal;&quot;&gt;std::shared_ptr&amp;lt;VarBase&amp;gt; m_returnVar;&lt;/span&gt;&lt;/div&gt;" style="text;strokeColor=none;fillColor=none;align=left;verticalAlign=top;spacingLeft=4;spacingRight=4;overflow=hidden;rotatable=0;points=[[0,0.5],[1,0.5]];portConstraint=eastwest;whiteSpace=wrap;html=1;" vertex="1" parent="eq3_Tgp2EmCCtKbiBsS1-46">
          <mxGeometry y="26" width="240" height="64" as="geometry" />
        </mxCell>
        <mxCell id="eq3_Tgp2EmCCtKbiBsS1-52" style="edgeStyle=orthogonalEdgeStyle;rounded=0;orthogonalLoop=1;jettySize=auto;html=1;entryX=1;entryY=0.154;entryDx=0;entryDy=0;entryPerimeter=0;" edge="1" parent="1" source="eq3_Tgp2EmCCtKbiBsS1-19" target="eq3_Tgp2EmCCtKbiBsS1-42">
          <mxGeometry relative="1" as="geometry" />
        </mxCell>
        <mxCell id="eq3_Tgp2EmCCtKbiBsS1-57" style="edgeStyle=orthogonalEdgeStyle;rounded=0;orthogonalLoop=1;jettySize=auto;html=1;startArrow=diamond;startFill=0;" edge="1" parent="1" source="eq3_Tgp2EmCCtKbiBsS1-53" target="eq3_Tgp2EmCCtKbiBsS1-46">
          <mxGeometry relative="1" as="geometry" />
        </mxCell>
        <mxCell id="eq3_Tgp2EmCCtKbiBsS1-53" value="FuncMap&amp;nbsp; &amp;nbsp;(singleton)" style="swimlane;fontStyle=0;childLayout=stackLayout;horizontal=1;startSize=26;fillColor=none;horizontalStack=0;resizeParent=1;resizeParentMax=0;resizeLast=0;collapsible=1;marginBottom=0;whiteSpace=wrap;html=1;" vertex="1" parent="1">
          <mxGeometry x="-660" y="-231" width="330" height="52" as="geometry" />
        </mxCell>
        <mxCell id="eq3_Tgp2EmCCtKbiBsS1-54" value="std::map &amp;lt;std::string, FuncBlock*&amp;gt; m_funcMap;" style="text;strokeColor=none;fillColor=none;align=left;verticalAlign=top;spacingLeft=4;spacingRight=4;overflow=hidden;rotatable=0;points=[[0,0.5],[1,0.5]];portConstraint=eastwest;whiteSpace=wrap;html=1;" vertex="1" parent="eq3_Tgp2EmCCtKbiBsS1-53">
          <mxGeometry y="26" width="330" height="26" as="geometry" />
        </mxCell>
        <mxCell id="eq3_Tgp2EmCCtKbiBsS1-82" style="edgeStyle=orthogonalEdgeStyle;rounded=0;orthogonalLoop=1;jettySize=auto;html=1;startArrow=diamond;startFill=0;" edge="1" parent="1" source="eq3_Tgp2EmCCtKbiBsS1-58" target="eq3_Tgp2EmCCtKbiBsS1-10">
          <mxGeometry relative="1" as="geometry" />
        </mxCell>
        <mxCell id="eq3_Tgp2EmCCtKbiBsS1-58" value="BasicClass" style="swimlane;fontStyle=0;childLayout=stackLayout;horizontal=1;startSize=26;fillColor=none;horizontalStack=0;resizeParent=1;resizeParentMax=0;resizeLast=0;collapsible=1;marginBottom=0;whiteSpace=wrap;html=1;" vertex="1" parent="1">
          <mxGeometry x="470" y="-220" width="280" height="90" as="geometry" />
        </mxCell>
        <mxCell id="eq3_Tgp2EmCCtKbiBsS1-61" value="&lt;div&gt;std::string m_name;&lt;/div&gt;&lt;div&gt;VarMap m_memberVar;&lt;/div&gt;&lt;div&gt;MemberFuncManager m_funcManager;&lt;/div&gt;" style="text;strokeColor=none;fillColor=none;align=left;verticalAlign=top;spacingLeft=4;spacingRight=4;overflow=hidden;rotatable=0;points=[[0,0.5],[1,0.5]];portConstraint=eastwest;whiteSpace=wrap;html=1;" vertex="1" parent="eq3_Tgp2EmCCtKbiBsS1-58">
          <mxGeometry y="26" width="280" height="64" as="geometry" />
        </mxCell>
        <mxCell id="eq3_Tgp2EmCCtKbiBsS1-62" value="MemberFunc" style="swimlane;fontStyle=0;childLayout=stackLayout;horizontal=1;startSize=26;fillColor=none;horizontalStack=0;resizeParent=1;resizeParentMax=0;resizeLast=0;collapsible=1;marginBottom=0;whiteSpace=wrap;html=1;" vertex="1" parent="1">
          <mxGeometry x="250" y="-330" width="270" height="60" as="geometry" />
        </mxCell>
        <mxCell id="eq3_Tgp2EmCCtKbiBsS1-63" value="&lt;div&gt;&lt;span style=&quot;background-color: transparent; color: light-dark(rgb(0, 0, 0), rgb(255, 255, 255));&quot;&gt;BasicClass* m_owner;&lt;/span&gt;&lt;/div&gt;" style="text;strokeColor=none;fillColor=none;align=left;verticalAlign=top;spacingLeft=4;spacingRight=4;overflow=hidden;rotatable=0;points=[[0,0.5],[1,0.5]];portConstraint=eastwest;whiteSpace=wrap;html=1;" vertex="1" parent="eq3_Tgp2EmCCtKbiBsS1-62">
          <mxGeometry y="26" width="270" height="34" as="geometry" />
        </mxCell>
        <mxCell id="eq3_Tgp2EmCCtKbiBsS1-66" style="edgeStyle=orthogonalEdgeStyle;rounded=0;orthogonalLoop=1;jettySize=auto;html=1;entryX=0.5;entryY=0;entryDx=0;entryDy=0;endArrow=block;endFill=0;" edge="1" parent="1" source="eq3_Tgp2EmCCtKbiBsS1-62" target="eq3_Tgp2EmCCtKbiBsS1-46">
          <mxGeometry relative="1" as="geometry" />
        </mxCell>
        <mxCell id="eq3_Tgp2EmCCtKbiBsS1-67" value="MemberFuncManager" style="swimlane;fontStyle=0;childLayout=stackLayout;horizontal=1;startSize=26;fillColor=none;horizontalStack=0;resizeParent=1;resizeParentMax=0;resizeLast=0;collapsible=1;marginBottom=0;whiteSpace=wrap;html=1;" vertex="1" parent="1">
          <mxGeometry x="414" y="-430" width="300" height="52" as="geometry" />
        </mxCell>
        <mxCell id="eq3_Tgp2EmCCtKbiBsS1-68" value="std::map &amp;lt;std::string, MemberFunc*&amp;gt; m_funcMap" style="text;strokeColor=none;fillColor=none;align=left;verticalAlign=top;spacingLeft=4;spacingRight=4;overflow=hidden;rotatable=0;points=[[0,0.5],[1,0.5]];portConstraint=eastwest;whiteSpace=wrap;html=1;" vertex="1" parent="eq3_Tgp2EmCCtKbiBsS1-67">
          <mxGeometry y="26" width="300" height="26" as="geometry" />
        </mxCell>
        <mxCell id="eq3_Tgp2EmCCtKbiBsS1-71" style="edgeStyle=orthogonalEdgeStyle;rounded=0;orthogonalLoop=1;jettySize=auto;html=1;entryX=0.481;entryY=0.01;entryDx=0;entryDy=0;entryPerimeter=0;startArrow=diamond;startFill=0;" edge="1" parent="1" source="eq3_Tgp2EmCCtKbiBsS1-67" target="eq3_Tgp2EmCCtKbiBsS1-62">
          <mxGeometry relative="1" as="geometry" />
        </mxCell>
        <mxCell id="eq3_Tgp2EmCCtKbiBsS1-76" value="ClassManager (singleton)" style="swimlane;fontStyle=0;childLayout=stackLayout;horizontal=1;startSize=26;fillColor=none;horizontalStack=0;resizeParent=1;resizeParentMax=0;resizeLast=0;collapsible=1;marginBottom=0;whiteSpace=wrap;html=1;" vertex="1" parent="1">
          <mxGeometry x="720" y="-320" width="280" height="52" as="geometry" />
        </mxCell>
        <mxCell id="eq3_Tgp2EmCCtKbiBsS1-77" value="std::map&amp;lt;std::string, ClassInfo&amp;gt; m_initMap" style="text;strokeColor=none;fillColor=none;align=left;verticalAlign=top;spacingLeft=4;spacingRight=4;overflow=hidden;rotatable=0;points=[[0,0.5],[1,0.5]];portConstraint=eastwest;whiteSpace=wrap;html=1;" vertex="1" parent="eq3_Tgp2EmCCtKbiBsS1-76">
          <mxGeometry y="26" width="280" height="26" as="geometry" />
        </mxCell>
        <mxCell id="eq3_Tgp2EmCCtKbiBsS1-80" style="edgeStyle=orthogonalEdgeStyle;rounded=0;orthogonalLoop=1;jettySize=auto;html=1;entryX=0.999;entryY=0.281;entryDx=0;entryDy=0;entryPerimeter=0;startArrow=diamond;startFill=0;" edge="1" parent="1" source="eq3_Tgp2EmCCtKbiBsS1-76" target="eq3_Tgp2EmCCtKbiBsS1-61">
          <mxGeometry relative="1" as="geometry" />
        </mxCell>
        <mxCell id="eq3_Tgp2EmCCtKbiBsS1-85" style="edgeStyle=orthogonalEdgeStyle;rounded=0;orthogonalLoop=1;jettySize=auto;html=1;entryX=0.655;entryY=0.981;entryDx=0;entryDy=0;entryPerimeter=0;" edge="1" parent="1" source="eq3_Tgp2EmCCtKbiBsS1-58" target="eq3_Tgp2EmCCtKbiBsS1-68">
          <mxGeometry relative="1" as="geometry" />
        </mxCell>
        <mxCell id="eq3_Tgp2EmCCtKbiBsS1-88" value="&lt;font style=&quot;font-size: 20px;&quot;&gt;&lt;b&gt;BLOCK&lt;/b&gt;&lt;/font&gt;" style="text;html=1;align=center;verticalAlign=middle;whiteSpace=wrap;rounded=0;fontColor=#EA6B66;" vertex="1" parent="1">
          <mxGeometry x="-200" y="343" width="60" height="30" as="geometry" />
        </mxCell>
        <mxCell id="eq3_Tgp2EmCCtKbiBsS1-89" value="&lt;span style=&quot;font-size: 20px;&quot;&gt;&lt;b&gt;CLASS&amp;nbsp; &amp;nbsp;manager单例&lt;/b&gt;&lt;/span&gt;" style="text;html=1;align=center;verticalAlign=middle;whiteSpace=wrap;rounded=0;fontColor=#EA6B66;" vertex="1" parent="1">
          <mxGeometry x="790" y="-440" width="240" height="30" as="geometry" />
        </mxCell>
        <mxCell id="eq3_Tgp2EmCCtKbiBsS1-92" value="&lt;font style=&quot;font-size: 20px;&quot;&gt;&lt;b&gt;FUNC&amp;nbsp; manager单例&lt;/b&gt;&lt;/font&gt;" style="text;html=1;align=center;verticalAlign=middle;whiteSpace=wrap;rounded=0;fontColor=#EA6B66;" vertex="1" parent="1">
          <mxGeometry x="-669" y="-140" width="249" height="30" as="geometry" />
        </mxCell>
        <mxCell id="eq3_Tgp2EmCCtKbiBsS1-94" value="&lt;font style=&quot;font-size: 20px;&quot;&gt;&lt;b&gt;VAR&amp;nbsp; &amp;nbsp;工厂模式&lt;/b&gt;&lt;/font&gt;" style="text;html=1;align=center;verticalAlign=middle;whiteSpace=wrap;rounded=0;fontColor=#EA6B66;" vertex="1" parent="1">
          <mxGeometry x="500" y="390" width="160" height="30" as="geometry" />
        </mxCell>
      </root>
    </mxGraphModel>
  </diagram>
</mxfile>
